<mxfile host="app.diagrams.net" agent="Mozilla/5.0 (Macintosh; Intel Mac OS X 10_15_7) AppleWebKit/537.36 (KHTML, like Gecko) Chrome/127.0.0.0 Safari/537.36" version="24.7.8">
  <diagram name="페이지-1" id="HzTUkSjxs7VT7-p7mngJ">
    <mxGraphModel grid="1" page="1" gridSize="10" guides="1" tooltips="1" connect="1" arrows="1" fold="1" pageScale="1" pageWidth="827" pageHeight="1169" math="0" shadow="0">
      <root>
        <mxCell id="0" />
        <mxCell id="1" parent="0" />
        <mxCell id="klZ7bNFXxapM0H9CXrP5-2" value="" style="edgeStyle=orthogonalEdgeStyle;rounded=0;orthogonalLoop=1;jettySize=auto;html=1;entryX=0;entryY=0.5;entryDx=0;entryDy=0;" edge="1" parent="1" source="oapIKvmoucZIWcxM1YHu-1" target="klZ7bNFXxapM0H9CXrP5-3">
          <mxGeometry relative="1" as="geometry">
            <mxPoint x="155" y="250" as="targetPoint" />
          </mxGeometry>
        </mxCell>
        <mxCell id="oapIKvmoucZIWcxM1YHu-1" value="주문자" style="shape=umlActor;verticalLabelPosition=bottom;verticalAlign=top;html=1;outlineConnect=0;" vertex="1" parent="1">
          <mxGeometry x="90" y="220" width="30" height="60" as="geometry" />
        </mxCell>
        <mxCell id="klZ7bNFXxapM0H9CXrP5-28" value="" style="edgeStyle=orthogonalEdgeStyle;rounded=0;orthogonalLoop=1;jettySize=auto;html=1;" edge="1" parent="1" source="klZ7bNFXxapM0H9CXrP5-3" target="klZ7bNFXxapM0H9CXrP5-27">
          <mxGeometry relative="1" as="geometry" />
        </mxCell>
        <mxCell id="klZ7bNFXxapM0H9CXrP5-3" value="상품 상세보기" style="ellipse;whiteSpace=wrap;html=1;" vertex="1" parent="1">
          <mxGeometry x="160" y="210" width="120" height="80" as="geometry" />
        </mxCell>
        <mxCell id="_WW1REBtpGebWQQJwqMP-4" value="" style="edgeStyle=orthogonalEdgeStyle;rounded=0;orthogonalLoop=1;jettySize=auto;html=1;" edge="1" parent="1" source="klZ7bNFXxapM0H9CXrP5-6" target="_WW1REBtpGebWQQJwqMP-3">
          <mxGeometry relative="1" as="geometry" />
        </mxCell>
        <mxCell id="klZ7bNFXxapM0H9CXrP5-6" value="관리자" style="shape=umlActor;verticalLabelPosition=bottom;verticalAlign=top;html=1;outlineConnect=0;" vertex="1" parent="1">
          <mxGeometry x="90" y="780" width="30" height="60" as="geometry" />
        </mxCell>
        <mxCell id="klZ7bNFXxapM0H9CXrP5-17" value="" style="edgeStyle=orthogonalEdgeStyle;rounded=0;orthogonalLoop=1;jettySize=auto;html=1;dashed=1;" edge="1" parent="1" source="klZ7bNFXxapM0H9CXrP5-16" target="klZ7bNFXxapM0H9CXrP5-3">
          <mxGeometry relative="1" as="geometry" />
        </mxCell>
        <mxCell id="klZ7bNFXxapM0H9CXrP5-24" value="include" style="edgeLabel;html=1;align=center;verticalAlign=middle;resizable=0;points=[];" vertex="1" connectable="0" parent="klZ7bNFXxapM0H9CXrP5-17">
          <mxGeometry x="0.0333" y="2" relative="1" as="geometry">
            <mxPoint as="offset" />
          </mxGeometry>
        </mxCell>
        <mxCell id="klZ7bNFXxapM0H9CXrP5-16" value="조회수 증가" style="ellipse;whiteSpace=wrap;html=1;" vertex="1" parent="1">
          <mxGeometry x="160" y="50" width="120" height="80" as="geometry" />
        </mxCell>
        <mxCell id="klZ7bNFXxapM0H9CXrP5-39" value="주문" style="swimlane;whiteSpace=wrap;html=1;" vertex="1" parent="1">
          <mxGeometry x="140" y="20" width="600" height="610" as="geometry" />
        </mxCell>
        <mxCell id="klZ7bNFXxapM0H9CXrP5-12" value="주문확인" style="ellipse;whiteSpace=wrap;html=1;" vertex="1" parent="klZ7bNFXxapM0H9CXrP5-39">
          <mxGeometry x="240" y="490" width="120" height="80" as="geometry" />
        </mxCell>
        <mxCell id="klZ7bNFXxapM0H9CXrP5-27" value="주문" style="ellipse;whiteSpace=wrap;html=1;" vertex="1" parent="klZ7bNFXxapM0H9CXrP5-39">
          <mxGeometry x="190" y="190" width="120" height="80" as="geometry" />
        </mxCell>
        <mxCell id="klZ7bNFXxapM0H9CXrP5-14" value="주문 정보 수정&lt;div&gt;(수정,취소)&lt;/div&gt;" style="ellipse;whiteSpace=wrap;html=1;" vertex="1" parent="klZ7bNFXxapM0H9CXrP5-39">
          <mxGeometry x="240" y="330" width="120" height="80" as="geometry" />
        </mxCell>
        <mxCell id="klZ7bNFXxapM0H9CXrP5-15" value="extend" style="rounded=0;orthogonalLoop=1;jettySize=auto;html=1;dashed=1;" edge="1" parent="klZ7bNFXxapM0H9CXrP5-39" source="klZ7bNFXxapM0H9CXrP5-14" target="klZ7bNFXxapM0H9CXrP5-12">
          <mxGeometry relative="1" as="geometry" />
        </mxCell>
        <mxCell id="klZ7bNFXxapM0H9CXrP5-29" value="주문자/판매자&lt;div&gt;주문 내역 메일 전송&lt;/div&gt;" style="ellipse;whiteSpace=wrap;html=1;" vertex="1" parent="klZ7bNFXxapM0H9CXrP5-39">
          <mxGeometry x="380" y="190" width="120" height="80" as="geometry" />
        </mxCell>
        <mxCell id="klZ7bNFXxapM0H9CXrP5-33" value="" style="endArrow=classic;html=1;rounded=0;exitX=0.5;exitY=1;exitDx=0;exitDy=0;dashed=1;entryX=0.5;entryY=0;entryDx=0;entryDy=0;" edge="1" parent="klZ7bNFXxapM0H9CXrP5-39" source="klZ7bNFXxapM0H9CXrP5-29" target="klZ7bNFXxapM0H9CXrP5-14">
          <mxGeometry width="50" height="50" relative="1" as="geometry">
            <mxPoint x="250" y="300" as="sourcePoint" />
            <mxPoint x="370" y="420" as="targetPoint" />
          </mxGeometry>
        </mxCell>
        <mxCell id="klZ7bNFXxapM0H9CXrP5-34" value="include" style="edgeLabel;html=1;align=center;verticalAlign=middle;resizable=0;points=[];" vertex="1" connectable="0" parent="klZ7bNFXxapM0H9CXrP5-33">
          <mxGeometry x="-0.2961" y="2" relative="1" as="geometry">
            <mxPoint as="offset" />
          </mxGeometry>
        </mxCell>
        <mxCell id="klZ7bNFXxapM0H9CXrP5-31" value="" style="endArrow=classic;html=1;rounded=0;entryX=1;entryY=0.5;entryDx=0;entryDy=0;dashed=1;exitX=0;exitY=0.5;exitDx=0;exitDy=0;" edge="1" parent="klZ7bNFXxapM0H9CXrP5-39" source="klZ7bNFXxapM0H9CXrP5-29" target="klZ7bNFXxapM0H9CXrP5-27">
          <mxGeometry width="50" height="50" relative="1" as="geometry">
            <mxPoint x="440" y="290" as="sourcePoint" />
            <mxPoint x="300" y="250" as="targetPoint" />
          </mxGeometry>
        </mxCell>
        <mxCell id="klZ7bNFXxapM0H9CXrP5-32" value="include" style="edgeLabel;html=1;align=center;verticalAlign=middle;resizable=0;points=[];" vertex="1" connectable="0" parent="klZ7bNFXxapM0H9CXrP5-31">
          <mxGeometry x="-0.35" y="1" relative="1" as="geometry">
            <mxPoint as="offset" />
          </mxGeometry>
        </mxCell>
        <mxCell id="_WW1REBtpGebWQQJwqMP-1" value="" style="endArrow=classic;html=1;rounded=0;entryX=0;entryY=0.5;entryDx=0;entryDy=0;" edge="1" parent="1" source="oapIKvmoucZIWcxM1YHu-1" target="klZ7bNFXxapM0H9CXrP5-12">
          <mxGeometry width="50" height="50" relative="1" as="geometry">
            <mxPoint x="180" y="460" as="sourcePoint" />
            <mxPoint x="230" y="410" as="targetPoint" />
          </mxGeometry>
        </mxCell>
        <mxCell id="_WW1REBtpGebWQQJwqMP-2" value="주문 확인" style="swimlane;whiteSpace=wrap;html=1;" vertex="1" parent="1">
          <mxGeometry x="140" y="670" width="600" height="350" as="geometry" />
        </mxCell>
        <mxCell id="_WW1REBtpGebWQQJwqMP-3" value="주문확인" style="ellipse;whiteSpace=wrap;html=1;" vertex="1" parent="_WW1REBtpGebWQQJwqMP-2">
          <mxGeometry x="80" y="100" width="120" height="80" as="geometry" />
        </mxCell>
        <mxCell id="_WW1REBtpGebWQQJwqMP-7" value="" style="edgeStyle=orthogonalEdgeStyle;rounded=0;orthogonalLoop=1;jettySize=auto;html=1;dashed=1;" edge="1" parent="_WW1REBtpGebWQQJwqMP-2" source="_WW1REBtpGebWQQJwqMP-5" target="_WW1REBtpGebWQQJwqMP-3">
          <mxGeometry relative="1" as="geometry" />
        </mxCell>
        <mxCell id="_WW1REBtpGebWQQJwqMP-9" value="extend" style="edgeLabel;html=1;align=center;verticalAlign=middle;resizable=0;points=[];" connectable="0" vertex="1" parent="_WW1REBtpGebWQQJwqMP-7">
          <mxGeometry x="-0.12" y="2" relative="1" as="geometry">
            <mxPoint as="offset" />
          </mxGeometry>
        </mxCell>
        <mxCell id="_WW1REBtpGebWQQJwqMP-5" value="주문 정보 수정&lt;div&gt;(취소,완료)&lt;/div&gt;" style="ellipse;whiteSpace=wrap;html=1;" vertex="1" parent="_WW1REBtpGebWQQJwqMP-2">
          <mxGeometry x="280" y="100" width="120" height="80" as="geometry" />
        </mxCell>
        <mxCell id="_WW1REBtpGebWQQJwqMP-8" value="" style="edgeStyle=orthogonalEdgeStyle;rounded=0;orthogonalLoop=1;jettySize=auto;html=1;dashed=1;" edge="1" parent="_WW1REBtpGebWQQJwqMP-2" source="_WW1REBtpGebWQQJwqMP-6" target="_WW1REBtpGebWQQJwqMP-5">
          <mxGeometry relative="1" as="geometry" />
        </mxCell>
        <mxCell id="_WW1REBtpGebWQQJwqMP-10" value="include" style="edgeLabel;html=1;align=center;verticalAlign=middle;resizable=0;points=[];" connectable="0" vertex="1" parent="_WW1REBtpGebWQQJwqMP-8">
          <mxGeometry x="-0.4" y="1" relative="1" as="geometry">
            <mxPoint as="offset" />
          </mxGeometry>
        </mxCell>
        <mxCell id="_WW1REBtpGebWQQJwqMP-6" value="주문자/판매자&lt;div&gt;주문 내역 메일 전송&lt;/div&gt;" style="ellipse;whiteSpace=wrap;html=1;" vertex="1" parent="_WW1REBtpGebWQQJwqMP-2">
          <mxGeometry x="460" y="100" width="120" height="80" as="geometry" />
        </mxCell>
      </root>
    </mxGraphModel>
  </diagram>
</mxfile>
